<svg id="facebook" xmlns="http://www.w3.org/2000/svg" width="40.439" height="40.439" viewBox="0 0 40.439 40.439">
  <path id="Trazado_254" data-name="Trazado 254" d="M296.677,94.717a4.315,4.315,0,0,1-4.333,4.333h-7.673V83.073h5.416l.812-6.138h-6.228V73.053a3.592,3.592,0,0,1,.542-2.166,3.127,3.127,0,0,1,2.437-.812h3.25V64.659a34.023,34.023,0,0,0-4.694-.271,7.745,7.745,0,0,0-5.732,2.121,7.991,7.991,0,0,0-2.121,5.912v4.514h-5.507v6.138h5.507V99.05H260.571a4.315,4.315,0,0,1-4.333-4.333V62.944a4.315,4.315,0,0,1,4.333-4.333h31.774a4.315,4.315,0,0,1,4.333,4.333Z" transform="translate(-256.238 -58.611)" fill="#fff"/>
</svg>
