<svg id="instagram" xmlns="http://www.w3.org/2000/svg" width="40.438" height="40.439" viewBox="0 0 40.438 40.439">
  <path id="Trazado_256" data-name="Trazado 256" d="M528.708,76.738a5.139,5.139,0,0,0-3.063-3.063,14.287,14.287,0,0,0-3.846-.57q-1.566-.071-4.416-.071H515.1q-2.849,0-4.416.071a15,15,0,0,0-3.846.57,5.139,5.139,0,0,0-3.063,3.063,14.312,14.312,0,0,0-.57,3.846q-.071,1.567-.072,4.416v2.279q0,2.849.072,4.416a15.016,15.016,0,0,0,.57,3.846,5.4,5.4,0,0,0,3.063,3.063,15,15,0,0,0,3.846.57q1.566.071,4.416.071h2.279q2.921,0,4.416-.071a14.287,14.287,0,0,0,3.846-.57,5.4,5.4,0,0,0,3.063-3.063,15.017,15.017,0,0,0,.57-3.846q.071-1.567.071-4.416V85q0-2.92-.071-4.416A14.312,14.312,0,0,0,528.708,76.738Zm-5.377,13.5a8.217,8.217,0,0,1-2.992,2.991,8.149,8.149,0,0,1-8.191,0,8.217,8.217,0,0,1-2.991-2.991,8.148,8.148,0,0,1,0-8.191,8.215,8.215,0,0,1,2.991-2.992,8.149,8.149,0,0,1,8.191,0,8.214,8.214,0,0,1,2.992,2.992,8.149,8.149,0,0,1,0,8.191Zm2.777-11.289a1.734,1.734,0,0,1-1.317.57,1.913,1.913,0,1,1,1.923-1.923A2.219,2.219,0,0,1,526.108,78.946Z" transform="translate(-496.024 -65.92)" fill="#fff"/>
  <path id="Trazado_257" data-name="Trazado 257" d="M524.22,88.774a5.349,5.349,0,1,0,3.775,1.567A5.144,5.144,0,0,0,524.22,88.774Z" transform="translate(-504.001 -73.896)" fill="#fff"/>
  <path id="Trazado_258" data-name="Trazado 258" d="M528.3,59.469a2.778,2.778,0,0,0-2.031-.858H491.6a2.929,2.929,0,0,0-2.888,2.888V96.161A2.929,2.929,0,0,0,491.6,99.05h34.661a2.929,2.929,0,0,0,2.889-2.888V61.5A2.775,2.775,0,0,0,528.3,59.469ZM524.783,85.49a13.446,13.446,0,0,1-.606,3.526,8.337,8.337,0,0,1-5.057,5.057,13.424,13.424,0,0,1-3.526.605q-2.03.107-6.659.107t-6.659-.107A11.625,11.625,0,0,1,498.75,94a7.59,7.59,0,0,1-3.1-1.888,8.294,8.294,0,0,1-1.959-3.1,13.443,13.443,0,0,1-.606-3.526q-.107-2.03-.107-6.659t.107-6.66a13.443,13.443,0,0,1,.606-3.526,8.338,8.338,0,0,1,5.057-5.057,13.42,13.42,0,0,1,3.526-.605q2.03-.107,6.659-.107t6.659.107a13.424,13.424,0,0,1,3.526.605,8.337,8.337,0,0,1,5.057,5.057,14.506,14.506,0,0,1,.641,3.561q.071,1.995.071,6.624T524.783,85.49Z" transform="translate(-488.716 -58.611)" fill="#fff"/>
</svg>
