<svg id="logo" xmlns="http://www.w3.org/2000/svg" width="270.899" height="110" viewBox="0 0 270.899 110">
  <text id="El_mundo_lésbico_en_tu_bolsillo" data-name="El mundo lésbico en tu bolsillo" transform="translate(35 106)" fill="#fff" font-size="16" font-family="MyriadPro-Regular, Myriad Pro"><tspan x="0" y="0">El mundo lésbico en tu bolsillo</tspan></text>
  <g id="Grupo_201" data-name="Grupo 201" transform="translate(68.68)">
    <g id="Grupo_199" data-name="Grupo 199">
      <path id="Trazado_325" data-name="Trazado 325" d="M496.426,572.576c-2.714.061-4.821-2.122-5.208-5.648a28.32,28.32,0,0,1,1.263-10.581c3.219-11.858,8.063-23.107,13.014-34.307,2.771-6.267,5.735-12.449,8.609-18.67.242-.524.465-1.058.922-2.1-3.259.5-6.181.825-9.05,1.414a51.483,51.483,0,0,0-14.47,5.287c-4.324,2.37-5.763,5.659-4.422,10.4.188.667.427,1.32.662,2.039-2.786-2.166-3.706-7.887-1.906-11.56s4.917-5.915,8.394-7.723c7.281-3.786,15.2-5.42,23.218-6.626a236.9,236.9,0,0,1,39.483-2.128,3.265,3.265,0,0,1,.512.089,6.451,6.451,0,0,1-5.5,5.527c-4.284.641-8.613,1.015-12.933,1.375-5.434.453-10.88.753-16.316,1.184-.619.049-1.539.353-1.754.807-2.216,4.682-4.316,9.42-6.543,14.35,1.536-.657,2.725-1.29,3.988-1.679,2.471-.762,3.854.134,3.839,2.711-.016,2.67-.41,5.338-.6,7.549,1.971,1.795,3.932,3.413,5.654,5.254a3.022,3.022,0,0,1,.3,2.538c-1.858,5.554-3.853,11.063-5.789,16.591a36.713,36.713,0,0,0-1.449,4.514,43.62,43.62,0,0,0-.449,4.926c-1.278.531-2.8-.337-4.257-1.275-1.379-.886-2.274-2.12-1.757-3.85.806-2.69,1.638-5.377,2.6-8.015,1.842-5.064,3.811-10.083,5.651-15.148.279-.769,1.219-1.879-.5-2.392-1.513-.453-1.546.619-1.888,1.569a59.367,59.367,0,0,1-9.947,17.887c-1.159,1.4-1.664,1.393-3.069.073a54.552,54.552,0,0,0,10.884-20.26l-6.5-2.981c-.888,2.194-1.957,4.752-2.965,7.335-4.046,10.372-8.042,20.771-10.572,31.637C496.845,565.835,496.8,569.145,496.426,572.576Zm23.539-55.521-.573-.331c-1.009,1.139-2.11,2.21-3.008,3.43-2.217,3.015-2.048,3.39,1.554,4.082.09.017.2-.07.5-.184Z" transform="translate(-484.913 -492.315)" fill="#fff"/>
      <path id="Trazado_326" data-name="Trazado 326" d="M628.167,518.968c-6.212,11.287-10.2,23.464-14.707,35.419,2.084-2.558,4.071-5.2,6.289-7.64a27.537,27.537,0,0,1,4.34-3.525,5.868,5.868,0,0,1,2.112-.809c3.421-.782,5.828,1.37,5,4.749a86.864,86.864,0,0,1-3.246,10.181,67.478,67.478,0,0,1-3.389,6.94A12.569,12.569,0,0,1,617.2,570.2c-3.068,1.107-5.863.264-8.537-1.809-.467,1.566-.8,2.976-1.335,4.306a1.837,1.837,0,0,1-1.35.793,4.279,4.279,0,0,1-1.683-.42c-1.569-.549-2.49-1.455-1.914-3.3a29.923,29.923,0,0,0,.616-3,35.048,35.048,0,0,1-2.9,2.509c-3,2.078-6.255.993-6.786-2.593a27.111,27.111,0,0,1,.3-8.326,33.71,33.71,0,0,1,4.918-12.511c1.873-2.945,4.133-3.347,7.24-1.427a53.547,53.547,0,0,0-7.736,16.615,31.027,31.027,0,0,0-.864,5c-.132,1.124.363,1.742,1.568,1.134,2.742-1.385,5.025-3.249,6.019-6.285,3.992-12.2,8.373-24.228,14.159-35.721,1.722-3.421,4.166-5.57,7.93-6.209a5.949,5.949,0,0,1,.871-.1A1.567,1.567,0,0,1,628.167,518.968ZM626.6,544.5a13.7,13.7,0,0,0-1.689.924,37.117,37.117,0,0,0-11.7,15.533,10.443,10.443,0,0,0-.512,3.966c.061,2.292,1.592,3.118,3.383,1.672a12.444,12.444,0,0,0,3.475-4.273c2.192-4.785,4.092-9.705,6.072-14.586C625.988,546.837,626.19,545.874,626.6,544.5Z" transform="translate(-549.963 -508.271)" fill="#fff"/>
      <path id="Trazado_327" data-name="Trazado 327" d="M700.229,601.618c2.894-.761,4.269-2.453,5.588-4.141,1.283-1.642,2.415-3.4,3.769-5.02-1.158,4.165-2.38,8.334-5.879,11.227-2.692,2.226-7.167.525-8.163-2.995-.3-1.057-.395-2.171-.626-3.5-1.5,1.87-2.876,3.643-4.316,5.363-2.039,2.435-3.381,2.7-6.3,1.414a3.848,3.848,0,0,1-2.6-3.927c.1-8.346,3.01-15.679,7.889-22.309a3.64,3.64,0,0,1,4.959-1.194c1.133.63,1.477,1.247.75,2.638-2.462,4.712-4.867,9.469-6.965,14.35-1.017,2.365-1.306,5.044-1.924,7.581l.632.393a9.267,9.267,0,0,0,2.1-1.764c1.614-2.5,3.095-5.1,4.586-7.678,2.6-4.507,5.04-9.119,7.817-13.516,1.593-2.521,3.479-2.534,5.794-.719a1.693,1.693,0,0,1,.53,2.485c-2.281,4.93-4.511,9.891-6.5,14.941C700.647,597.081,700.637,599.2,700.229,601.618Z" transform="translate(-603.228 -542.634)" fill="#fff"/>
      <path id="Trazado_328" data-name="Trazado 328" d="M623.1,558.432c-1.436,2.213-2.75,4.349-4.2,6.385a2.145,2.145,0,0,1-1.686.583,32.354,32.354,0,0,1-3.589-.7C615.391,558.738,617.63,556.223,623.1,558.432Z" transform="translate(-562.292 -531.589)" fill="#fff"/>
    </g>
    <g id="Grupo_200" data-name="Grupo 200">
      <path id="Trazado_329" data-name="Trazado 329" d="M496.426,572.576c-2.714.061-4.821-2.122-5.208-5.648a28.32,28.32,0,0,1,1.263-10.581c3.219-11.858,8.063-23.107,13.014-34.307,2.771-6.267,5.735-12.449,8.609-18.67.242-.524.465-1.058.922-2.1-3.259.5-6.181.825-9.05,1.414a51.483,51.483,0,0,0-14.47,5.287c-4.324,2.37-5.763,5.659-4.422,10.4.188.667.427,1.32.662,2.039-2.786-2.166-3.706-7.887-1.906-11.56s4.917-5.915,8.394-7.723c7.281-3.786,15.2-5.42,23.218-6.626a236.9,236.9,0,0,1,39.483-2.128,3.265,3.265,0,0,1,.512.089,6.451,6.451,0,0,1-5.5,5.527c-4.284.641-8.613,1.015-12.933,1.375-5.434.453-10.88.753-16.316,1.184-.619.049-1.539.353-1.754.807-2.216,4.682-4.316,9.42-6.543,14.35,1.536-.657,2.725-1.29,3.988-1.679,2.471-.762,3.854.134,3.839,2.711-.016,2.67-.41,5.338-.6,7.549,1.971,1.795,3.932,3.413,5.654,5.254a3.022,3.022,0,0,1,.3,2.538c-1.858,5.554-3.853,11.063-5.789,16.591a36.713,36.713,0,0,0-1.449,4.514,43.62,43.62,0,0,0-.449,4.926c-1.278.531-2.8-.337-4.257-1.275-1.379-.886-2.274-2.12-1.757-3.85.806-2.69,1.638-5.377,2.6-8.015,1.842-5.064,3.811-10.083,5.651-15.148.279-.769,1.219-1.879-.5-2.392-1.513-.453-1.546.619-1.888,1.569a59.367,59.367,0,0,1-9.947,17.887c-1.159,1.4-1.664,1.393-3.069.073a54.552,54.552,0,0,0,10.884-20.26l-6.5-2.981c-.888,2.194-1.957,4.752-2.965,7.335-4.046,10.372-8.042,20.771-10.572,31.637C496.845,565.835,496.8,569.145,496.426,572.576Zm23.539-55.521-.573-.331c-1.009,1.139-2.11,2.21-3.008,3.43-2.217,3.015-2.048,3.39,1.554,4.082.09.017.2-.07.5-.184Z" transform="translate(-484.913 -492.315)" fill="#fff"/>
      <path id="Trazado_330" data-name="Trazado 330" d="M628.167,518.968c-6.212,11.287-10.2,23.464-14.707,35.419,2.084-2.558,4.071-5.2,6.289-7.64a27.537,27.537,0,0,1,4.34-3.525,5.868,5.868,0,0,1,2.112-.809c3.421-.782,5.828,1.37,5,4.749a86.864,86.864,0,0,1-3.246,10.181,67.478,67.478,0,0,1-3.389,6.94A12.569,12.569,0,0,1,617.2,570.2c-3.068,1.107-5.863.264-8.537-1.809-.467,1.566-.8,2.976-1.335,4.306a1.837,1.837,0,0,1-1.35.793,4.279,4.279,0,0,1-1.683-.42c-1.569-.549-2.49-1.455-1.914-3.3a29.923,29.923,0,0,0,.616-3,35.048,35.048,0,0,1-2.9,2.509c-3,2.078-6.255.993-6.786-2.593a27.111,27.111,0,0,1,.3-8.326,33.71,33.71,0,0,1,4.918-12.511c1.873-2.945,4.133-3.347,7.24-1.427a53.547,53.547,0,0,0-7.736,16.615,31.027,31.027,0,0,0-.864,5c-.132,1.124.363,1.742,1.568,1.134,2.742-1.385,5.025-3.249,6.019-6.285,3.992-12.2,8.373-24.228,14.159-35.721,1.722-3.421,4.166-5.57,7.93-6.209a5.949,5.949,0,0,1,.871-.1A1.567,1.567,0,0,1,628.167,518.968ZM626.6,544.5a13.7,13.7,0,0,0-1.689.924,37.117,37.117,0,0,0-11.7,15.533,10.443,10.443,0,0,0-.512,3.966c.061,2.292,1.592,3.118,3.383,1.672a12.444,12.444,0,0,0,3.475-4.273c2.192-4.785,4.092-9.705,6.072-14.586C625.988,546.837,626.19,545.874,626.6,544.5Z" transform="translate(-549.963 -508.271)" fill="#fff"/>
      <path id="Trazado_331" data-name="Trazado 331" d="M700.229,601.618c2.894-.761,4.269-2.453,5.588-4.141,1.283-1.642,2.415-3.4,3.769-5.02-1.158,4.165-2.38,8.334-5.879,11.227-2.692,2.226-7.167.525-8.163-2.995-.3-1.057-.395-2.171-.626-3.5-1.5,1.87-2.876,3.643-4.316,5.363-2.039,2.435-3.381,2.7-6.3,1.414a3.848,3.848,0,0,1-2.6-3.927c.1-8.346,3.01-15.679,7.889-22.309a3.64,3.64,0,0,1,4.959-1.194c1.133.63,1.477,1.247.75,2.638-2.462,4.712-4.867,9.469-6.965,14.35-1.017,2.365-1.306,5.044-1.924,7.581l.632.393a9.267,9.267,0,0,0,2.1-1.764c1.614-2.5,3.095-5.1,4.586-7.678,2.6-4.507,5.04-9.119,7.817-13.516,1.593-2.521,3.479-2.534,5.794-.719a1.693,1.693,0,0,1,.53,2.485c-2.281,4.93-4.511,9.891-6.5,14.941C700.647,597.081,700.637,599.2,700.229,601.618Z" transform="translate(-603.228 -542.634)" fill="#fff"/>
      <path id="Trazado_332" data-name="Trazado 332" d="M623.1,558.432c-1.436,2.213-2.75,4.349-4.2,6.385a2.145,2.145,0,0,1-1.686.583,32.354,32.354,0,0,1-3.589-.7C615.391,558.738,617.63,556.223,623.1,558.432Z" transform="translate(-562.292 -531.589)" fill="#fff"/>
    </g>
  </g>
  <path id="Trazado_333" data-name="Trazado 333" d="M537.978,609.856q-.325.863-.641,1.715h4.44c.379-.567.751-1.138,1.106-1.715Z" transform="translate(-447.751 -562.981)" fill="#695c5c"/>
  <path id="Trazado_334" data-name="Trazado 334" d="M564.091,609.856h-1.4q-.493.87-1.009,1.715h1.763Q563.77,610.711,564.091,609.856Z" transform="translate(-462.389 -562.981)" fill="#695c5c"/>
  <path id="Trazado_335" data-name="Trazado 335" d="M617.076,611.571q.284-.851.577-1.715h-4.545c-.22.561-.432,1.134-.639,1.715Z" transform="translate(-492.92 -562.981)" fill="#695c5c"/>
  <path id="Trazado_336" data-name="Trazado 336" d="M644.2,611.571c.3-.579.618-1.15.95-1.715h-.924l-1.4,1.715Z" transform="translate(-511.171 -562.981)" fill="#695c5c"/>
  <path id="Trazado_337" data-name="Trazado 337" d="M652.923,609.856c-.356.563-.7,1.134-1.017,1.715h4.641q.361-.858.717-1.715Z" transform="translate(-516.63 -562.981)" fill="#695c5c"/>
  <g id="Grupo_202" data-name="Grupo 202" transform="translate(156.251 46.875)">
    <path id="Trazado_338" data-name="Trazado 338" d="M707.063,611.571l.032-.056c.317-.548.632-1.1.947-1.659h-2.753q-.4.852-.787,1.715Z" transform="translate(-704.502 -609.856)" fill="#695c5c"/>
    <path id="Trazado_339" data-name="Trazado 339" d="M812.758,609.856H756.583l-.477,1.715h56.652a.857.857,0,1,0,0-1.715Z" transform="translate(-735.527 -609.856)" fill="#695c5c"/>
    <path id="Trazado_340" data-name="Trazado 340" d="M739.473,609.856q-.367.852-.73,1.715h5.062l1.435-1.715Z" transform="translate(-725.088 -609.856)" fill="#695c5c"/>
  </g>
  <path id="Trazado_341" data-name="Trazado 341" d="M590.583,609.856h-2.106c-.2.572-.4,1.146-.6,1.715h2.318Q590.364,610.71,590.583,609.856Z" transform="translate(-478.134 -562.981)" fill="#695c5c"/>
  <path id="Trazado_342" data-name="Trazado 342" d="M394.014,609.855H313.551a.858.858,0,0,0,0,1.715h79.806Q393.682,610.712,394.014,609.855Z" transform="translate(-312.694 -562.981)" fill="#695c5c"/>
  <path id="Trazado_343" data-name="Trazado 343" d="M854.972,608.575a4.769,4.769,0,1,1,4.768-4.769A4.77,4.77,0,0,1,854.972,608.575Z" transform="translate(-635.847 -556.477)" fill="#e87864"/>
  <path id="Trazado_344" data-name="Trazado 344" d="M819.1,608.575a4.768,4.768,0,1,1,4.768-4.769A4.767,4.767,0,0,1,819.1,608.575Z" transform="translate(-614.281 -556.477)" fill="#695c5c"/>
  <path id="Trazado_345" data-name="Trazado 345" d="M781.52,608.575a4.768,4.768,0,1,1,4.769-4.769A4.768,4.768,0,0,1,781.52,608.575Z" transform="translate(-591.688 -556.478)" fill="#695c5c"/>
  <path id="Trazado_346" data-name="Trazado 346" d="M866.911,603.191l12.124-16.431L867.52,570.107l49.271,17.507Zm5.041-29.69,9.189,13.292-9.739,13.2,39.971-12.483Z" transform="translate(-645.892 -539.084)" fill="#695c5c"/>
  <path id="Trazado_347" data-name="Trazado 347" d="M902.94,594.787l20.78,7.383-21.052,6.575,5.122-6.942Z" transform="translate(-667.39 -553.921)" fill="#695c5c"/>
  <path id="Trazado_348" data-name="Trazado 348" d="M425.388,583.377a.857.857,0,0,1,1.054-1.338l17.767,10.853a.857.857,0,1,1-.894,1.463L425.548,583.5A.817.817,0,0,1,425.388,583.377Z" transform="translate(-380.295 -546.182)" fill="#e87864"/>
  <path id="Trazado_349" data-name="Trazado 349" d="M388.044,583.377a.857.857,0,0,1,1.053-1.337l17.767,10.852a.857.857,0,1,1-.893,1.463L388.2,583.5A.885.885,0,0,1,388.044,583.377Z" transform="translate(-357.844 -546.182)" fill="#695c5c"/>
  <path id="Trazado_350" data-name="Trazado 350" d="M350.7,583.378a.858.858,0,0,1,1.054-1.338l17.767,10.852a.858.858,0,0,1-.894,1.464L350.86,583.5A.827.827,0,0,1,350.7,583.378Z" transform="translate(-335.393 -546.182)" fill="#695c5c"/>
  <path id="Trazado_351" data-name="Trazado 351" d="M313.353,583.378a.857.857,0,0,1,1.054-1.338l17.767,10.853a.857.857,0,1,1-.894,1.463L313.513,583.5A.859.859,0,0,1,313.353,583.378Z" transform="translate(-312.939 -546.183)" fill="#695c5c"/>
  <path id="Trazado_352" data-name="Trazado 352" d="M425.388,621.443a.82.82,0,0,1-.126-.16.857.857,0,0,1,.285-1.179l17.767-10.851a.858.858,0,0,1,.893,1.464l-17.767,10.851A.858.858,0,0,1,425.388,621.443Z" transform="translate(-380.295 -562.543)" fill="#e87864"/>
  <path id="Trazado_353" data-name="Trazado 353" d="M388.045,621.443a.846.846,0,0,1-.126-.16.858.858,0,0,1,.285-1.179l17.767-10.852a.858.858,0,0,1,.893,1.464L389.1,621.569A.858.858,0,0,1,388.045,621.443Z" transform="translate(-357.844 -562.543)" fill="#695c5c"/>
  <path id="Trazado_354" data-name="Trazado 354" d="M350.7,621.443a.837.837,0,0,1-.126-.16.858.858,0,0,1,.285-1.179l17.767-10.851a.858.858,0,0,1,.894,1.465l-17.767,10.851A.859.859,0,0,1,350.7,621.443Z" transform="translate(-335.392 -562.543)" fill="#695c5c"/>
  <path id="Trazado_355" data-name="Trazado 355" d="M313.354,621.442a.856.856,0,0,1,.159-1.338l17.767-10.851a.858.858,0,0,1,.894,1.464l-17.767,10.851A.859.859,0,0,1,313.354,621.442Z" transform="translate(-312.94 -562.543)" fill="#695c5c"/>
</svg>
