<svg xmlns="http://www.w3.org/2000/svg" width="146.017" height="43.262" viewBox="0 0 146.017 43.262">
  <g id="Grupo_209" data-name="Grupo 209" transform="translate(-312.694 3.236)">
    <g id="Grupo_207" data-name="Grupo 207" transform="translate(349.713 -3.236)">
      <g id="Grupo_205" data-name="Grupo 205" transform="translate(0 0)">
        <path id="Trazado_356" data-name="Trazado 356" d="M491.118,40.025c-1.463.033-2.6-1.143-2.807-3.045a15.263,15.263,0,0,1,.681-5.7,130.748,130.748,0,0,1,7.015-18.492c1.493-3.378,3.091-6.71,4.64-10.063.131-.283.251-.57.5-1.132-1.757.269-3.332.445-4.878.762a27.756,27.756,0,0,0-7.8,2.85c-2.331,1.277-3.106,3.05-2.383,5.608.1.36.23.711.357,1.1-1.5-1.167-2-4.251-1.027-6.231a9.591,9.591,0,0,1,4.524-4.163,39.327,39.327,0,0,1,12.515-3.572A127.716,127.716,0,0,1,523.734-3.2a1.735,1.735,0,0,1,.276.048,3.477,3.477,0,0,1-2.966,2.979c-2.309.346-4.642.547-6.971.741-2.929.244-5.864.406-8.794.638-.333.026-.83.19-.945.435-1.195,2.524-2.326,5.077-3.527,7.735.828-.354,1.469-.7,2.15-.905,1.332-.411,2.078.072,2.069,1.461-.008,1.439-.221,2.877-.323,4.069,1.063.967,2.119,1.839,3.048,2.832a1.629,1.629,0,0,1,.162,1.368c-1,2.994-2.077,5.963-3.12,8.943a19.8,19.8,0,0,0-.781,2.433,23.511,23.511,0,0,0-.242,2.655c-.689.286-1.508-.182-2.295-.688a1.76,1.76,0,0,1-.947-2.075c.434-1.45.883-2.9,1.4-4.32.993-2.73,2.054-5.435,3.046-8.165.151-.414.657-1.013-.267-1.29-.816-.244-.833.334-1.018.846a31.994,31.994,0,0,1-5.361,9.641c-.625.757-.9.751-1.654.039a29.4,29.4,0,0,0,5.867-10.92l-3.5-1.607c-.479,1.183-1.055,2.562-1.6,3.954a125.541,125.541,0,0,0-5.7,17.053A46.371,46.371,0,0,0,491.118,40.025ZM503.806,10.1l-.309-.178c-.544.614-1.138,1.191-1.621,1.849-1.2,1.625-1.1,1.827.837,2.2.048.009.108-.038.267-.1Z" transform="translate(-484.913 3.236)" fill="#fff"/>
        <path id="Trazado_357" data-name="Trazado 357" d="M612.007,23.365c-3.348,6.084-5.5,12.647-7.927,19.091,1.123-1.379,2.194-2.805,3.39-4.118a14.832,14.832,0,0,1,2.339-1.9A3.16,3.16,0,0,1,610.947,36c1.844-.422,3.141.738,2.7,2.56a46.8,46.8,0,0,1-1.75,5.487,36.375,36.375,0,0,1-1.826,3.741,6.775,6.775,0,0,1-3.969,3.187A4.606,4.606,0,0,1,601.5,50c-.252.844-.431,1.6-.72,2.321a.989.989,0,0,1-.727.427,2.308,2.308,0,0,1-.907-.226c-.846-.3-1.342-.784-1.032-1.78a16.124,16.124,0,0,0,.332-1.618,18.881,18.881,0,0,1-1.564,1.352c-1.617,1.12-3.371.535-3.657-1.4a14.609,14.609,0,0,1,.164-4.488,18.168,18.168,0,0,1,2.651-6.743c1.01-1.587,2.228-1.8,3.9-.769a28.867,28.867,0,0,0-4.17,8.956,16.727,16.727,0,0,0-.466,2.7c-.071.606.2.939.845.611a5.9,5.9,0,0,0,3.244-3.387A137.813,137.813,0,0,1,607.025,26.7a5.632,5.632,0,0,1,4.274-3.347,3.269,3.269,0,0,1,.47-.053A.852.852,0,0,1,612.007,23.365Zm-.845,13.762a7.4,7.4,0,0,0-.91.5A20.006,20.006,0,0,0,603.943,46a5.631,5.631,0,0,0-.276,2.138c.033,1.235.858,1.68,1.823.9a6.707,6.707,0,0,0,1.873-2.3c1.182-2.579,2.206-5.231,3.273-7.862C610.833,38.387,610.942,37.867,611.162,37.127Z" transform="translate(-569.855 -17.599)" fill="#fff"/>
        <path id="Trazado_358" data-name="Trazado 358" d="M691.692,94.264a5.307,5.307,0,0,0,3.012-2.233c.691-.885,1.3-1.833,2.031-2.706-.624,2.245-1.283,4.492-3.169,6.052a2.875,2.875,0,0,1-4.4-1.614c-.161-.57-.213-1.17-.338-1.888-.809,1.008-1.55,1.964-2.326,2.891-1.1,1.313-1.823,1.457-3.393.762a2.074,2.074,0,0,1-1.4-2.117,20.337,20.337,0,0,1,4.252-12.025,1.962,1.962,0,0,1,2.673-.644c.611.34.8.672.4,1.422-1.327,2.54-2.623,5.1-3.754,7.734a25.661,25.661,0,0,0-1.037,4.087l.341.212a5,5,0,0,0,1.13-.951c.87-1.35,1.668-2.747,2.472-4.138,1.4-2.43,2.716-4.915,4.214-7.285.859-1.359,1.875-1.366,3.123-.388a.913.913,0,0,1,.286,1.34c-1.229,2.657-2.432,5.331-3.505,8.053A18.175,18.175,0,0,0,691.692,94.264Z" transform="translate(-639.407 -62.47)" fill="#fff"/>
        <path id="Trazado_359" data-name="Trazado 359" d="M618.729,62.517c-.774,1.192-1.482,2.344-2.266,3.442a1.156,1.156,0,0,1-.909.314,17.494,17.494,0,0,1-1.935-.38C614.574,62.681,615.781,61.326,618.729,62.517Z" transform="translate(-585.953 -48.048)" fill="#fff"/>
      </g>
      <g id="Grupo_206" data-name="Grupo 206" transform="translate(0 0)">
        <path id="Trazado_360" data-name="Trazado 360" d="M491.118,40.025c-1.463.033-2.6-1.143-2.807-3.045a15.263,15.263,0,0,1,.681-5.7,130.748,130.748,0,0,1,7.015-18.492c1.493-3.378,3.091-6.71,4.64-10.063.131-.283.251-.57.5-1.132-1.757.269-3.332.445-4.878.762a27.756,27.756,0,0,0-7.8,2.85c-2.331,1.277-3.106,3.05-2.383,5.608.1.36.23.711.357,1.1-1.5-1.167-2-4.251-1.027-6.231a9.591,9.591,0,0,1,4.524-4.163,39.327,39.327,0,0,1,12.515-3.572A127.716,127.716,0,0,1,523.734-3.2a1.735,1.735,0,0,1,.276.048,3.477,3.477,0,0,1-2.966,2.979c-2.309.346-4.642.547-6.971.741-2.929.244-5.864.406-8.794.638-.333.026-.83.19-.945.435-1.195,2.524-2.326,5.077-3.527,7.735.828-.354,1.469-.7,2.15-.905,1.332-.411,2.078.072,2.069,1.461-.008,1.439-.221,2.877-.323,4.069,1.063.967,2.119,1.839,3.048,2.832a1.629,1.629,0,0,1,.162,1.368c-1,2.994-2.077,5.963-3.12,8.943a19.8,19.8,0,0,0-.781,2.433,23.511,23.511,0,0,0-.242,2.655c-.689.286-1.508-.182-2.295-.688a1.76,1.76,0,0,1-.947-2.075c.434-1.45.883-2.9,1.4-4.32.993-2.73,2.054-5.435,3.046-8.165.151-.414.657-1.013-.267-1.29-.816-.244-.833.334-1.018.846a31.994,31.994,0,0,1-5.361,9.641c-.625.757-.9.751-1.654.039a29.4,29.4,0,0,0,5.867-10.92l-3.5-1.607c-.479,1.183-1.055,2.562-1.6,3.954a125.541,125.541,0,0,0-5.7,17.053A46.371,46.371,0,0,0,491.118,40.025ZM503.806,10.1l-.309-.178c-.544.614-1.138,1.191-1.621,1.849-1.2,1.625-1.1,1.827.837,2.2.048.009.108-.038.267-.1Z" transform="translate(-484.913 3.236)" fill="#fff"/>
        <path id="Trazado_361" data-name="Trazado 361" d="M612.007,23.365c-3.348,6.084-5.5,12.647-7.927,19.091,1.123-1.379,2.194-2.805,3.39-4.118a14.832,14.832,0,0,1,2.339-1.9A3.16,3.16,0,0,1,610.947,36c1.844-.422,3.141.738,2.7,2.56a46.8,46.8,0,0,1-1.75,5.487,36.375,36.375,0,0,1-1.826,3.741,6.775,6.775,0,0,1-3.969,3.187A4.606,4.606,0,0,1,601.5,50c-.252.844-.431,1.6-.72,2.321a.989.989,0,0,1-.727.427,2.308,2.308,0,0,1-.907-.226c-.846-.3-1.342-.784-1.032-1.78a16.124,16.124,0,0,0,.332-1.618,18.881,18.881,0,0,1-1.564,1.352c-1.617,1.12-3.371.535-3.657-1.4a14.609,14.609,0,0,1,.164-4.488,18.168,18.168,0,0,1,2.651-6.743c1.01-1.587,2.228-1.8,3.9-.769a28.867,28.867,0,0,0-4.17,8.956,16.727,16.727,0,0,0-.466,2.7c-.071.606.2.939.845.611a5.9,5.9,0,0,0,3.244-3.387A137.813,137.813,0,0,1,607.025,26.7a5.632,5.632,0,0,1,4.274-3.347,3.269,3.269,0,0,1,.47-.053A.852.852,0,0,1,612.007,23.365Zm-.845,13.762a7.4,7.4,0,0,0-.91.5A20.006,20.006,0,0,0,603.943,46a5.631,5.631,0,0,0-.276,2.138c.033,1.235.858,1.68,1.823.9a6.707,6.707,0,0,0,1.873-2.3c1.182-2.579,2.206-5.231,3.273-7.862C610.833,38.387,610.942,37.867,611.162,37.127Z" transform="translate(-569.855 -17.599)" fill="#fff"/>
        <path id="Trazado_362" data-name="Trazado 362" d="M691.692,94.264a5.307,5.307,0,0,0,3.012-2.233c.691-.885,1.3-1.833,2.031-2.706-.624,2.245-1.283,4.492-3.169,6.052a2.875,2.875,0,0,1-4.4-1.614c-.161-.57-.213-1.17-.338-1.888-.809,1.008-1.55,1.964-2.326,2.891-1.1,1.313-1.823,1.457-3.393.762a2.074,2.074,0,0,1-1.4-2.117,20.337,20.337,0,0,1,4.252-12.025,1.962,1.962,0,0,1,2.673-.644c.611.34.8.672.4,1.422-1.327,2.54-2.623,5.1-3.754,7.734a25.661,25.661,0,0,0-1.037,4.087l.341.212a5,5,0,0,0,1.13-.951c.87-1.35,1.668-2.747,2.472-4.138,1.4-2.43,2.716-4.915,4.214-7.285.859-1.359,1.875-1.366,3.123-.388a.913.913,0,0,1,.286,1.34c-1.229,2.657-2.432,5.331-3.505,8.053A18.175,18.175,0,0,0,691.692,94.264Z" transform="translate(-639.407 -62.47)" fill="#fff"/>
        <path id="Trazado_363" data-name="Trazado 363" d="M618.729,62.517c-.774,1.192-1.482,2.344-2.266,3.442a1.156,1.156,0,0,1-.909.314,17.494,17.494,0,0,1-1.935-.38C614.574,62.681,615.781,61.326,618.729,62.517Z" transform="translate(-585.953 -48.048)" fill="#fff"/>
      </g>
    </g>
    <path id="Trazado_364" data-name="Trazado 364" d="M537.682,114.305q-.175.465-.345.924h2.393c.2-.306.4-.613.6-.924Z" transform="translate(-176.355 -92.275)" fill="#fff"/>
    <path id="Trazado_365" data-name="Trazado 365" d="M562.983,114.305h-.753q-.266.469-.544.924h.95Q562.809,114.766,562.983,114.305Z" transform="translate(-195.47 -92.275)" fill="#fff"/>
    <path id="Trazado_366" data-name="Trazado 366" d="M614.952,115.229q.153-.459.311-.924h-2.45c-.118.3-.233.611-.345.924Z" transform="translate(-235.337 -92.275)" fill="#fff"/>
    <path id="Trazado_367" data-name="Trazado 367" d="M643.564,115.229c.161-.312.333-.62.512-.924h-.5l-.753.924Z" transform="translate(-259.168 -92.275)" fill="#fff"/>
    <path id="Trazado_368" data-name="Trazado 368" d="M652.454,114.305c-.192.3-.375.611-.548.924h2.5q.195-.462.386-.924Z" transform="translate(-266.297 -92.275)" fill="#fff"/>
    <g id="Grupo_208" data-name="Grupo 208" transform="translate(396.915 22.03)">
      <path id="Trazado_369" data-name="Trazado 369" d="M705.882,115.229l.017-.03c.171-.3.341-.6.51-.894h-1.484q-.214.459-.424.924Z" transform="translate(-704.502 -114.305)" fill="#fff"/>
      <path id="Trazado_370" data-name="Trazado 370" d="M786.642,114.305H756.363l-.257.924h30.536a.462.462,0,1,0,0-.925Z" transform="translate(-745.014 -114.305)" fill="#fff"/>
      <path id="Trazado_371" data-name="Trazado 371" d="M739.136,114.305q-.2.459-.393.924h2.729l.774-.924Z" transform="translate(-731.383 -114.305)" fill="#fff"/>
    </g>
    <path id="Trazado_372" data-name="Trazado 372" d="M589.334,114.305H588.2c-.108.309-.216.618-.325.924h1.249Q589.216,114.766,589.334,114.305Z" transform="translate(-216.029 -92.275)" fill="#fff"/>
    <path id="Trazado_373" data-name="Trazado 373" d="M356.526,114.305h-43.37a.462.462,0,1,0,0,.924h43.016Q356.347,114.767,356.526,114.305Z" transform="translate(0 -92.275)" fill="#fff"/>
    <path id="Trazado_374" data-name="Trazado 374" d="M852.773,108.628a2.57,2.57,0,1,1,2.57-2.57A2.571,2.571,0,0,1,852.773,108.628Z" transform="translate(-421.969 -83.783)" fill="#e87864"/>
    <path id="Trazado_375" data-name="Trazado 375" d="M816.9,108.628a2.57,2.57,0,1,1,2.57-2.57A2.569,2.569,0,0,1,816.9,108.628Z" transform="translate(-393.809 -83.783)" fill="#fff"/>
    <path id="Trazado_376" data-name="Trazado 376" d="M779.321,108.628a2.57,2.57,0,1,1,2.57-2.57A2.57,2.57,0,0,1,779.321,108.628Z" transform="translate(-364.306 -83.783)" fill="#fff"/>
    <path id="Trazado_377" data-name="Trazado 377" d="M866.911,92.389l6.535-8.857-6.207-8.976L893.8,83.992Zm2.717-16,4.953,7.164-5.249,7.114,21.545-6.729Z" transform="translate(-435.086 -61.07)" fill="#fff"/>
    <path id="Trazado_378" data-name="Trazado 378" d="M902.815,99.236l11.2,3.979-11.347,3.544,2.761-3.742Z" transform="translate(-463.157 -80.445)" fill="#fff"/>
    <path id="Trazado_379" data-name="Trazado 379" d="M425.272,87.152a.462.462,0,0,1,.568-.721l9.577,5.85a.462.462,0,1,1-.482.789l-9.576-5.85A.442.442,0,0,1,425.272,87.152Z" transform="translate(-88.273 -70.339)" fill="#e87864"/>
    <path id="Trazado_380" data-name="Trazado 380" d="M387.928,87.152a.462.462,0,0,1,.568-.721l9.576,5.85a.462.462,0,1,1-.482.789l-9.576-5.85A.469.469,0,0,1,387.928,87.152Z" transform="translate(-58.956 -70.34)" fill="#fff"/>
    <path id="Trazado_381" data-name="Trazado 381" d="M350.584,87.152a.462.462,0,0,1,.568-.721l9.577,5.85a.462.462,0,0,1-.482.789l-9.576-5.85A.44.44,0,0,1,350.584,87.152Z" transform="translate(-29.639 -70.34)" fill="#fff"/>
    <path id="Trazado_382" data-name="Trazado 382" d="M313.237,87.152a.462.462,0,0,1,.568-.721l9.577,5.85a.462.462,0,1,1-.482.788l-9.577-5.849A.463.463,0,0,1,313.237,87.152Z" transform="translate(-0.321 -70.34)" fill="#fff"/>
    <path id="Trazado_383" data-name="Trazado 383" d="M425.272,120.214a.441.441,0,0,1-.068-.086.462.462,0,0,1,.154-.635l9.576-5.849a.462.462,0,0,1,.482.789l-9.576,5.849A.463.463,0,0,1,425.272,120.214Z" transform="translate(-88.272 -91.703)" fill="#e87864"/>
    <path id="Trazado_384" data-name="Trazado 384" d="M387.928,120.215a.448.448,0,0,1-.068-.086.462.462,0,0,1,.153-.635l9.576-5.849a.462.462,0,0,1,.482.789l-9.576,5.849A.462.462,0,0,1,387.928,120.215Z" transform="translate(-58.956 -91.704)" fill="#fff"/>
    <path id="Trazado_385" data-name="Trazado 385" d="M350.584,120.215a.463.463,0,0,1,.086-.722l9.576-5.849a.462.462,0,1,1,.482.789l-9.576,5.849A.463.463,0,0,1,350.584,120.215Z" transform="translate(-29.639 -91.703)" fill="#fff"/>
    <path id="Trazado_386" data-name="Trazado 386" d="M313.238,120.215a.47.47,0,0,1-.068-.086.463.463,0,0,1,.153-.635l9.577-5.849a.462.462,0,0,1,.482.789l-9.577,5.849A.463.463,0,0,1,313.238,120.215Z" transform="translate(-0.321 -91.704)" fill="#fff"/>
  </g>
</svg>
