<svg xmlns="http://www.w3.org/2000/svg" width="39.156" height="28.892" viewBox="0 0 39.156 28.892">
  <g id="menu" transform="translate(-25.342 -38.561)">
    <g id="Grupo_185" data-name="Grupo 185" transform="translate(25.342 38.561)">
      <path id="Trazado_290" data-name="Trazado 290" d="M66.082,64.5H31.574c-1.283,0-2.324-1.367-2.324-3.054s1.04-3.054,2.324-3.054H66.082c1.283,0,2.324,1.367,2.324,3.054S67.366,64.5,66.082,64.5Z" transform="translate(-29.25 -58.392)" fill="#ffe5d8"/>
    </g>
    <g id="Grupo_186" data-name="Grupo 186" transform="translate(25.342 49.953)">
      <path id="Trazado_291" data-name="Trazado 291" d="M66.082,97.706H31.574c-1.283,0-2.324-1.367-2.324-3.054S30.29,91.6,31.574,91.6H66.082c1.283,0,2.324,1.367,2.324,3.054S67.366,97.706,66.082,97.706Z" transform="translate(-29.25 -91.598)" fill="#ffe5d8"/>
    </g>
    <g id="Grupo_187" data-name="Grupo 187" transform="translate(25.342 61.345)">
      <path id="Trazado_292" data-name="Trazado 292" d="M66.082,130.912H31.574c-1.283,0-2.324-1.367-2.324-3.054s1.04-3.054,2.324-3.054H66.082c1.283,0,2.324,1.367,2.324,3.054S67.366,130.912,66.082,130.912Z" transform="translate(-29.25 -124.804)" fill="#ffe5d8"/>
    </g>
  </g>
</svg>
