<svg id="twitter" xmlns="http://www.w3.org/2000/svg" width="40.439" height="40.439" viewBox="0 0 40.439 40.439">
  <path id="Trazado_253" data-name="Trazado 253" d="M408.583,58.611a4.315,4.315,0,0,1,4.333,4.333V94.717a4.315,4.315,0,0,1-4.333,4.333H376.81a4.315,4.315,0,0,1-4.333-4.333V62.944a4.315,4.315,0,0,1,4.333-4.333ZM404.16,72.963a13.124,13.124,0,0,0,2.979-3.069,12.059,12.059,0,0,1-3.43.9,6.067,6.067,0,0,0,2.618-3.25,11.224,11.224,0,0,1-3.792,1.444,5.492,5.492,0,0,0-4.242-1.9,5.817,5.817,0,0,0-3.294.993,5.986,5.986,0,0,0-2.212,2.663,5.78,5.78,0,0,0-.271,3.655,16.177,16.177,0,0,1-6.86-1.85,17.812,17.812,0,0,1-5.416-4.378,5.6,5.6,0,0,0-.812,2.934,5.858,5.858,0,0,0,2.708,5.009,6.165,6.165,0,0,1-2.708-.812v.09a5.742,5.742,0,0,0,1.354,3.792,6.006,6.006,0,0,0,3.43,2.076,8.094,8.094,0,0,1-2.708.09,5.526,5.526,0,0,0,2.076,2.933,5.651,5.651,0,0,0,3.43,1.129,11.606,11.606,0,0,1-7.311,2.527h-1.444a17.342,17.342,0,0,0,18.324,0,16.33,16.33,0,0,0,5.687-6.409,17.349,17.349,0,0,0,1.9-7.853Z" transform="translate(-372.477 -58.611)" fill="#fff"/>
</svg>
