<svg id="youtube" xmlns="http://www.w3.org/2000/svg" width="40.439" height="40.439" viewBox="0 0 40.439 40.439">
  <path id="Trazado_388" data-name="Trazado 388" d="M362.656,537.954c0,1.912-.016,3.823.012,5.735a.885.885,0,0,1-.437.867,1.135,1.135,0,0,1-.734.177c-.118-.028-.214-.406-.216-.628-.016-2.066-.009-4.133-.01-6.2,0-.136-.011-.272-.018-.421h-1.608c-.009.123-.019.2-.019.276,0,2.3,0,4.6.006,6.9a5.046,5.046,0,0,0,.087.884.976.976,0,0,0,1.21.848,5.922,5.922,0,0,0,1.27-.605,3.212,3.212,0,0,0,.477-.408v.893H364.3V537.5h-1.641Z" transform="translate(-345.134 -513.191)" fill="#fff"/>
  <path id="Trazado_389" data-name="Trazado 389" d="M335.19,520.854h-5.611v1.719h1.912v10.178h1.852v-10.21h1.847Z" transform="translate(-320.695 -499.665)" fill="#fff"/>
  <path id="Trazado_390" data-name="Trazado 390" d="M397.945,524.854a1.44,1.44,0,0,0-2.282-.808c-.2.131-.374.3-.606.48v-3.759h-1.62v11.9h1.6l.041-.526a4.492,4.492,0,0,0,.767.493,1.488,1.488,0,0,0,2.233-1.3,4.843,4.843,0,0,0,.032-.541c0-1.575.011-3.149-.006-4.723A4.518,4.518,0,0,0,397.945,524.854Zm-1.571,5.805c0,.23-.127.619-.261.651a1.6,1.6,0,0,1-.861-.147c-.1-.039-.182-.268-.185-.411-.017-.838-.008-1.677-.008-2.515,0-.812.013-1.625-.005-2.437-.01-.418.275-.525.575-.6a.514.514,0,0,1,.671.364,1.8,1.8,0,0,1,.084.53C396.389,527.616,396.4,529.138,396.374,530.659Z" transform="translate(-372.636 -499.595)" fill="#fff"/>
  <path id="Trazado_391" data-name="Trazado 391" d="M383.713,459.37c0,.451.208.677.6.7a.641.641,0,0,0,.729-.67q.025-2.436,0-4.872a.647.647,0,0,0-.721-.639.615.615,0,0,0-.613.69c0,.8,0,1.6,0,2.4S383.706,458.571,383.713,459.37Z" transform="translate(-364.723 -445.194)" fill="#fff"/>
  <path id="Trazado_392" data-name="Trazado 392" d="M429.6,537.711a1.9,1.9,0,0,0-1.518-1.432,2.482,2.482,0,0,0-3.151,2.514q-.013,1.839,0,3.679a6.744,6.744,0,0,0,.07,1.079,2.111,2.111,0,0,0,1.537,1.814,2.429,2.429,0,0,0,2.557-.536,3.517,3.517,0,0,0,.669-2.718h-1.745c0,.42.021.806-.005,1.189-.029.431-.208.586-.593.625a.558.558,0,0,1-.7-.506c-.076-.774-.092-1.554-.136-2.372h3.2A14.972,14.972,0,0,0,429.6,537.711Zm-1.586,1.937h-1.409c.033-.468.052-.913.1-1.355.04-.385.32-.5.659-.512a.564.564,0,0,1,.642.533C428.046,538.745,428.015,539.183,428.015,539.648Z" transform="translate(-398.247 -512.152)" fill="#fff"/>
  <path id="Trazado_393" data-name="Trazado 393" d="M318.084,407.324H286.273a4.314,4.314,0,0,0-4.3,4.332v31.811a4.314,4.314,0,0,0,4.332,4.3h31.811a4.314,4.314,0,0,0,4.3-4.332V411.619A4.314,4.314,0,0,0,318.084,407.324Zm-12.7,7.835v-.447h1.643v.421c0,2.028-.009,4.056.011,6.083a1.032,1.032,0,0,0,.259.743c.293.21.564-.091.809-.275a.739.739,0,0,0,.31-.658c-.015-1.963-.007-3.926-.007-5.889V414.7h1.615v8.8h-1.6v-.9a4.327,4.327,0,0,1-.335.291,5.711,5.711,0,0,1-.963.627,1.139,1.139,0,0,1-1.72-1.081c-.031-.476-.018-.955-.019-1.433Q305.385,418.084,305.387,415.158Zm-4.052-.648a2.172,2.172,0,0,1,2.458,1.254,2.289,2.289,0,0,1,.2.891c.02,1.6.015,3.2.007,4.8a2.1,2.1,0,0,1-1.755,2.214c-1.683.179-2.649-.372-2.943-1.715a5.263,5.263,0,0,1-.063-1.041c-.009-.607,0-1.214,0-1.821h.027c0-.839-.027-1.679.006-2.517A2.027,2.027,0,0,1,301.335,414.51Zm-6.508-2.918c.094,0,.231.174.261.29.371,1.418.726,2.841,1.085,4.262.014.056.036.109.055.163l.094,0,1.131-4.713h1.892c-.318,1.039-.631,2.067-.946,3.1-.32,1.045-.669,2.082-.953,3.137a7.333,7.333,0,0,0-.242,1.666c-.036,1.187-.011,2.376-.011,3.564v.436h-1.868v-.409c0-1.123-.019-2.247.007-3.37a5.761,5.761,0,0,0-.272-1.86c-.6-1.953-1.194-3.911-1.789-5.867-.037-.122-.069-.245-.116-.413C293.729,411.579,294.279,411.564,294.827,411.592Zm20.659,28.1a3.828,3.828,0,0,1-3.731,3.669c-2.091.059-4.182.15-6.274.153-3.629.005-7.258-.043-10.887-.079-.749-.007-1.5-.046-2.245-.1a3.763,3.763,0,0,1-3.367-3.269,35.309,35.309,0,0,1-.221-3.98c.017-2.361.1-4.723.207-7.082a3.4,3.4,0,0,1,1.463-2.615,3.765,3.765,0,0,1,2.226-.779c3.2-.07,6.4-.153,9.606-.23q4.766.116,9.528.233a3.624,3.624,0,0,1,3.584,3.091,32.572,32.572,0,0,1,.257,4.286C315.635,435.224,315.513,437.457,315.485,439.69Z" transform="translate(-281.978 -407.324)" fill="#fff"/>
</svg>
